<?xml version="1.0" encoding="UTF-8"?>
<svg version="1.1" xmlns="http://www.w3.org/2000/svg" width="512" height="512">
<path d="M0 0 C0.81567837 -0.00445784 1.63135674 -0.00891569 2.47175264 -0.01350862 C3.36239774 -0.01332426 4.25304284 -0.01313989 5.17067719 -0.01294994 C6.12117935 -0.01662663 7.07168151 -0.02030332 8.05098677 -0.02409142 C11.2443314 -0.03512737 14.43764349 -0.038972 17.63100433 -0.04278088 C19.91751458 -0.04904569 22.20402381 -0.05569251 24.49053192 -0.0626936 C32.00805197 -0.08373772 39.52557222 -0.09409768 47.04311371 -0.10406017 C49.63197592 -0.10810788 52.22083802 -0.1122248 54.80970001 -0.11641026 C65.58082342 -0.13328075 76.35194314 -0.14791433 87.12307739 -0.155159 C89.91706087 -0.15706876 92.71104433 -0.15898911 95.50502777 -0.16094494 C96.54661896 -0.16167055 96.54661896 -0.16167055 97.60925239 -0.16241082 C108.84623192 -0.17070281 120.0831047 -0.1960257 131.32003766 -0.22852562 C142.86895595 -0.26165416 154.41780407 -0.27928073 165.9667716 -0.28280324 C172.44609169 -0.28515156 178.92524313 -0.29408379 185.40451813 -0.31926441 C191.50469655 -0.34258814 197.60459578 -0.34676086 203.70480728 -0.33650303 C205.93800918 -0.33600858 208.17122503 -0.3423021 210.40438461 -0.35605907 C229.42474579 -0.46662892 242.38268832 2.1443128 257.01576996 15.00531483 C266.77190042 25.15430961 271.39547779 40.90079887 276.51186371 53.75922108 C277.47954249 56.17502096 278.44889243 58.59014593 279.41829681 61.00525379 C280.04114599 62.55757012 280.66327449 64.11017583 281.28462982 65.66309071 C283.76038852 71.84498414 286.29948636 77.99809445 288.88686371 84.13422108 C289.92584808 83.8686742 290.96483246 83.60312733 292.03530121 83.32953358 C295.64690957 82.41134276 299.26295461 81.51241449 302.88246918 80.6259203 C304.54279571 80.2186246 306.20139444 79.80429286 307.85951996 79.38812733 C314.75795817 77.80290777 320.65636068 77.58109462 327.13686371 80.69672108 C331.5085901 84.57166038 334.45067452 88.27843792 335.3531723 94.18719959 C335.52266204 97.68260729 335.51979271 101.13561274 335.44936371 104.63422108 C335.46579926 106.41119373 335.46579926 106.41119373 335.48256683 108.22406483 C335.41402746 116.42137391 334.34635859 122.11448411 328.95717621 128.37640858 C322.60351755 133.70939918 318.25552832 135.22293484 309.88686371 135.13422108 C310.3341684 136.2505492 310.78147308 137.36687733 311.24233246 138.51703358 C314.67228541 147.30266065 317.59326669 156.05903148 319.69936371 165.25922108 C319.89360931 166.09082752 320.08785492 166.92243397 320.28798676 167.77924061 C324.17598392 185.61587581 324.21267774 203.39978592 324.22280121 221.56781483 C324.22565605 222.92131658 324.22884965 224.27481765 324.23237228 225.62831783 C324.25075024 232.70085933 324.2590563 239.7733264 324.25746918 246.845891 C324.25626325 253.40303698 324.277485 259.95985631 324.3089565 266.51691955 C324.33518272 272.18617699 324.3458342 277.85532782 324.34455836 283.52464539 C324.34405164 286.89396026 324.34957561 290.26298205 324.37091446 293.63223553 C324.3905752 297.38374325 324.38473753 301.13440791 324.37270355 304.88593006 C324.38394257 305.98276112 324.39518158 307.07959217 324.40676117 308.20966053 C324.34235501 316.13691477 323.00463747 323.26644608 317.92201996 329.57172108 C308.13636323 337.32273631 298.99361738 337.32085018 286.82949066 337.31952381 C284.59125839 337.32170462 282.35352429 337.33987772 280.11537933 337.35883045 C260.59017748 337.43693235 260.59017748 337.43693235 252.88686371 331.13422108 C240.25954306 318.21324181 244.88686371 303.3497506 244.88686371 285.13422108 C200.00686371 285.13422108 155.12686371 285.13422108 108.88686371 285.13422108 C107.89686371 288.10422108 106.90686371 291.07422108 105.88686371 294.13422108 C104.66270051 296.82529199 103.42275364 299.44729862 102.07436371 302.07172108 C101.54443817 303.11247791 101.54443817 303.11247791 101.00380707 304.17426014 C88.12143255 329.23288581 70.24745264 347.64864829 46.88686371 363.13422108 C46.07862152 363.67949451 45.27037933 364.22476795 44.43764496 364.78656483 C22.81319743 378.6276798 -4.11767248 384.36289526 -29.42563629 384.38422108 C-30.50085037 384.38523319 -30.50085037 384.38523319 -31.59778595 384.38626575 C-42.68534339 384.36968501 -53.32302649 383.84174184 -64.11313629 381.13422108 C-64.80294586 380.96793201 -65.49275543 380.80164295 -66.20346832 380.63031483 C-87.38851197 375.39105512 -107.62575822 365.4950864 -124.11313629 351.13422108 C-125.37577301 350.03593983 -125.37577301 350.03593983 -126.66391754 348.91547108 C-129.17858386 346.68699592 -131.65359761 344.42329668 -134.11313629 342.13422108 C-135.1302066 341.1983617 -135.1302066 341.1983617 -136.16782379 340.24359608 C-155.63840912 321.63315709 -167.42393474 296.85541629 -174.11313629 271.13422108 C-174.45602692 269.86062733 -174.79891754 268.58703358 -175.15219879 267.27484608 C-179.55358557 247.44803834 -179.30942515 222.74127055 -174.11313629 203.13422108 C-173.95216461 202.47357655 -173.79119293 201.81293201 -173.62534332 201.13226795 C-166.04778983 170.1814923 -147.4173069 140.73181315 -122.11313629 121.13422108 C-121.03805817 120.58508045 -119.96298004 120.03593983 -118.85532379 119.47015858 C-115.27259265 117.6152694 -112.79037785 116.17253798 -110.11313629 113.13422108 C-108.80881333 108.42046887 -109.0366893 103.63510754 -109.20298004 98.79047108 C-109.30953272 93.23014892 -107.99118122 88.48973505 -104.49985504 84.11078358 C-98.35153326 79.2203943 -93.55490109 77.57751118 -85.67954254 78.44281483 C-77.66091953 79.9973562 -69.8794822 82.63369736 -62.11313629 85.13422108 C-61.98068512 84.61682362 -61.84823395 84.09942616 -61.7117691 83.56634998 C-59.22028162 74.57098709 -55.48477755 66.09182085 -51.86313629 57.50922108 C-51.21296508 55.95601627 -50.56322299 54.40263176 -49.91391754 52.84906483 C-48.31203378 49.02278993 -46.69455695 45.20337745 -45.06925201 41.38699818 C-44.11264613 39.13306617 -43.1672495 36.87463397 -42.22202301 34.61591053 C-41.61597884 33.1881808 -41.00939455 31.76068019 -40.40219879 30.33343983 C-40.00131042 29.3650568 -40.00131042 29.3650568 -39.5923233 28.37711048 C-34.20689959 15.84517356 -22.77454898 7.38782372 -10.59360504 2.07953358 C-6.99524266 0.70818917 -3.85294785 0.00980527 0 0 Z M2.26186371 23.32172108 C1.56834808 23.68652576 0.87483246 24.05133045 0.16030121 24.42718983 C-5.78086486 28.88816847 -9.18632555 34.5935181 -11.98813629 41.35297108 C-12.48784943 42.51741749 -12.48784943 42.51741749 -12.99765778 43.70538807 C-14.05153039 46.17550238 -15.08467985 48.65342718 -16.11313629 51.13422108 C-16.45135406 51.94391346 -16.78957184 52.75360584 -17.13803864 53.58783436 C-19.16328389 58.44356626 -21.15529062 63.31200702 -23.12534332 68.19037342 C-24.13592159 70.69059301 -25.15361646 73.18784298 -26.17173004 75.68500233 C-26.8192842 77.2824889 -27.46643607 78.88013862 -28.11313629 80.47797108 C-28.56765167 81.5917815 -28.56765167 81.5917815 -29.03134918 82.72809315 C-30.57604917 86.31679283 -30.57604917 86.31679283 -31.11313629 90.13422108 C-30.55142731 90.17385975 -29.98971832 90.21349842 -29.41098785 90.25433826 C2.21167279 92.57632673 29.77565741 99.96042816 56.01186371 118.25922108 C56.69845062 118.73770496 57.38503754 119.21618885 58.09243011 119.70917225 C62.22725335 122.68675232 65.84086466 125.91449602 69.36391449 129.595891 C71.01655102 131.3258224 71.01655102 131.3258224 73.63686371 133.32172108 C75.88686371 135.13422108 75.88686371 135.13422108 77.07087994 137.21617699 C78.82592544 139.46182318 78.82592544 139.46182318 82.11284351 139.63479233 C83.47260544 139.65553973 84.83281074 139.65400249 86.19260406 139.63542652 C86.94230758 139.64096092 87.69201109 139.64649531 88.4644329 139.65219742 C90.98423944 139.6658437 93.50306223 139.65081374 96.02285004 139.63593006 C97.82634656 139.63971191 99.62984018 139.64521083 101.43332672 139.65230274 C106.33847706 139.66629524 111.24327809 139.65505968 116.14840913 139.63859153 C121.27857137 139.62476283 126.40871288 139.63119886 131.53888702 139.63472462 C140.15827322 139.6374292 148.77752037 139.62393233 157.39687347 139.60077381 C167.36082764 139.57418782 177.3245489 139.57240803 187.28852636 139.58416218 C196.87002339 139.59494568 206.45143621 139.58874673 216.03292656 139.5746069 C220.11134775 139.56884952 224.18970726 139.5689279 228.26812935 139.57367229 C233.07393129 139.57844818 237.87947864 139.56831494 242.68523216 139.54671764 C244.44845598 139.54115702 246.21170429 139.54067783 247.97492981 139.54567051 C250.3836257 139.55163495 252.79154631 139.53909629 255.20017242 139.52190113 C255.8965835 139.52791118 256.59299458 139.53392122 257.31050903 139.54011339 C262.71703262 139.4700245 266.72844488 138.07679802 270.76186371 134.44672108 C272.77217931 130.31440567 272.45176671 126.08839839 271.20278168 121.767766 C270.16713591 119.00237145 269.04414344 116.28850992 267.88686371 113.57172108 C267.45043549 112.51525379 267.01400726 111.45878651 266.56435394 110.37030506 C265.5742004 107.97505559 264.57912101 105.58238362 263.57778168 103.19183826 C261.70757098 98.71731805 259.87668783 94.22700296 258.04701996 89.73578358 C254.97824525 82.20631984 251.88797174 74.68600735 248.78339386 67.1712389 C246.97697556 62.79444715 245.18647277 58.41195271 243.42002106 54.01887989 C242.23274128 51.0735609 241.0267121 48.13591423 239.82436371 45.19672108 C239.42032318 44.17457508 239.01628265 43.15242908 238.59999847 42.09930897 C234.86190773 33.06000985 229.16877887 25.0600147 219.88686371 21.13422108 C214.02594046 19.51177016 208.48119472 18.84324338 202.4174881 18.88025379 C201.61506654 18.87713381 200.81264498 18.87401383 199.98590761 18.8707993 C197.32382839 18.86288538 194.66198133 18.8691169 191.99990082 18.87543201 C190.08054217 18.87271924 188.16118457 18.86915669 186.24182892 18.8648119 C181.04774937 18.85572039 175.85374957 18.85921862 170.65966868 18.86557007 C165.21550586 18.87064611 159.77134969 18.86593423 154.32718658 18.86279774 C145.18715442 18.85916308 136.04715462 18.8639444 126.90712738 18.87347889 C116.34896437 18.88436572 105.7908786 18.88083417 95.23271745 18.86982608 C86.15647088 18.86074285 77.08024752 18.8594729 68.00399786 18.86470342 C62.58799159 18.86781699 57.1720216 18.86824921 51.75601768 18.86163044 C46.66456432 18.85584244 41.57321032 18.85988052 36.48176765 18.87141895 C34.61616811 18.87405761 32.75056016 18.87331404 30.88496399 18.86889362 C28.33294929 18.86340542 25.78125041 18.87031178 23.22925568 18.88025379 C22.49607162 18.87579235 21.76288756 18.8713309 21.00748581 18.86673427 C14.38995314 18.91652871 8.1298823 20.10200301 2.26186371 23.32172108 Z M-108.17563629 170.32172108 C-125.51235508 190.43091109 -134.3197911 216.70969185 -132.92173004 243.20062733 C-130.67701043 272.18916668 -117.12832055 298.20091 -95.11313629 317.13422108 C-71.56802607 335.60925863 -44.10406201 341.52568665 -14.64975739 338.91595936 C-5.70597473 337.74310563 2.66646728 334.74995935 10.88686371 331.13422108 C11.89491058 330.69207264 12.90295746 330.2499242 13.94155121 329.79437733 C21.67887573 326.16687843 28.27116917 321.51678616 34.88686371 316.13422108 C35.74151215 315.4458617 36.59616058 314.75750233 37.47670746 314.04828358 C54.03674866 299.97355662 64.5999806 281.03740177 69.88686371 260.13422108 C70.13178558 259.17902576 70.37670746 258.22383045 70.62905121 257.23968983 C76.23067143 230.42097385 69.63027766 202.7907668 54.88686371 180.13422108 C52.36517494 176.66268014 49.68234137 173.3870366 46.88686371 170.13422108 C46.11149261 169.14228748 46.11149261 169.14228748 45.32045746 168.13031483 C32.30584429 151.98436615 12.64098578 142.13579666 -7.11313629 137.13422108 C-8.05673004 136.8892992 -9.00032379 136.64437733 -9.97251129 136.39203358 C-46.78217852 128.62583211 -83.06310354 143.52178494 -108.17563629 170.32172108 Z M193.5328598 193.80243397 C192.55694599 197.32509189 192.56137097 200.81519884 192.55092621 204.44281483 C192.54426941 205.24655033 192.53761261 206.05028584 192.53075409 206.87837696 C192.52064602 208.57537013 192.5159365 210.27240291 192.51625824 211.96942616 C192.51188429 214.55953138 192.47554573 217.14793269 192.43764496 219.7377367 C192.43177644 221.3894236 192.42780728 223.04111857 192.42592621 224.69281483 C192.41155518 225.46379002 192.39718414 226.23476521 192.38237762 227.02910328 C192.41407617 230.77671702 192.74621626 232.91516963 194.7906723 236.09930897 C198.37820447 239.58196453 200.81531436 239.27755175 205.73574066 239.32709217 C206.4400119 239.33526966 207.14428314 239.34344715 207.86989594 239.35187244 C210.20497028 239.37672295 212.53998384 239.39324162 214.87514496 239.40765858 C216.07109818 239.41564409 216.07109818 239.41564409 217.29121208 239.42379093 C221.51148136 239.45052128 225.73172108 239.46989633 229.95204926 239.48431873 C234.31030593 239.50096492 238.66780616 239.54574186 243.02577686 239.59669018 C246.37754938 239.63035323 249.72914214 239.64189505 253.08106804 239.64754581 C254.68745135 239.65426117 256.29382272 239.66949085 257.90004158 239.69343662 C260.15058825 239.72507319 262.39909233 239.7251286 264.64980316 239.71771717 C266.5693557 239.72984745 266.5693557 239.72984745 268.52768707 239.74222279 C272.75823235 238.97650576 274.21402812 237.42126721 276.88686371 234.13422108 C279.14587966 228.89069089 278.0727895 222.09201256 278.07216644 216.43524647 C278.07435288 214.20775715 278.09252799 211.9807635 278.11147308 209.7533617 C278.11440749 208.32953526 278.11639197 206.90570648 278.11733246 205.48187733 C278.12144135 204.19289539 278.12555023 202.90391346 278.12978363 201.57587147 C277.84131715 197.48892472 277.05936348 194.56161211 274.44936371 191.38422108 C271.0479702 188.66310627 267.47184998 188.99676323 263.30751801 188.97308826 C262.64372131 188.96812336 261.97992462 188.96315845 261.29601288 188.9580431 C259.10102549 188.94344437 256.90611041 188.93662292 254.71108246 188.93109608 C253.18274687 188.92534222 251.6544113 188.91958452 250.12607574 188.91382313 C246.92076532 188.9033193 243.71547993 188.89747276 240.51015472 188.8939867 C236.41117874 188.88850679 232.31253574 188.86448717 228.21366405 188.83601475 C225.05572303 188.81735163 221.89786158 188.8121808 218.73987007 188.81065083 C217.22925053 188.80763146 215.71863216 188.79962714 214.20806694 188.78646564 C212.08992125 188.76932944 209.9725807 188.77130339 207.85439301 188.77777576 C206.6509877 188.77413013 205.4475824 188.7704845 204.20771027 188.7667284 C199.97257754 189.23539813 196.2863824 190.40993128 193.5328598 193.80243397 Z " fill="#484848" transform="translate(177.1131362915039,63.86577892303467)"/>
<path d="M0 0 C4.54547516 2.92032342 7.37984905 6.6332551 8.84375 11.84375 C10.20768114 21.1759104 6.18680463 27.92686943 0.83984375 35.1953125 C0.05359619 36.28610107 0.05359619 36.28610107 -0.74853516 37.39892578 C-2.4376411 39.7348175 -4.1408991 42.05979324 -5.84765625 44.3828125 C-6.40984863 45.15125488 -6.97204102 45.91969727 -7.55126953 46.71142578 C-11.040086 51.47797761 -14.54868575 56.22961418 -18.06542969 60.97558594 C-21.00005724 64.93934315 -23.92328816 68.9114838 -26.84765625 72.8828125 C-28.00777373 74.45705982 -29.16793005 76.03127852 -30.328125 77.60546875 C-33.33852909 81.69083691 -36.3460775 85.77829994 -39.35302734 89.86621094 C-41.11802869 92.2631028 -42.88686987 94.65712081 -44.65625 97.05078125 C-46.60380642 99.6868619 -48.53563896 102.33246338 -50.4453125 104.99609375 C-61.02035301 119.56171559 -61.02035301 119.56171559 -69.84765625 122.3828125 C-86.1160615 124.40836754 -96.04247473 115.36650451 -108.38183594 106.21044922 C-110.88711243 104.35356805 -113.40126672 102.50932834 -115.91796875 100.66796875 C-120.57368268 97.25605524 -125.22783131 93.84324346 -129.84765625 90.3828125 C-130.66210205 89.77703369 -131.47654785 89.17125488 -132.31567383 88.54711914 C-133.1177124 87.93989014 -133.91975098 87.33266113 -134.74609375 86.70703125 C-135.47103027 86.16135498 -136.1959668 85.61567871 -136.94287109 85.0534668 C-140.78762561 81.68129874 -142.46138379 77.93221072 -143.21875 72.93359375 C-143.51805625 67.01095788 -142.48554593 62.14167982 -138.84765625 57.3828125 C-134.24728745 53.17974828 -129.99400318 51.24008461 -123.72265625 51.0078125 C-122.83320312 50.95882812 -121.94375 50.90984375 -121.02734375 50.859375 C-112.77461788 52.21793184 -105.80567591 58.40744732 -99.28515625 63.3203125 C-98.48658203 63.91521484 -97.68800781 64.51011719 -96.86523438 65.12304688 C-96.07439453 65.71279297 -95.28355469 66.30253906 -94.46875 66.91015625 C-93.69644043 67.48491699 -92.92413086 68.05967773 -92.12841797 68.65185547 C-90.60526952 69.8078309 -89.10134281 70.98957007 -87.61767578 72.19580078 C-86.9214209 72.75380371 -86.22516602 73.31180664 -85.5078125 73.88671875 C-84.89687744 74.39146729 -84.28594238 74.89621582 -83.65649414 75.41625977 C-81.87840821 76.57883715 -81.87840821 76.57883715 -79.74926758 76.19458008 C-76.67837249 74.88366389 -75.26176584 72.19998588 -73.47265625 69.5078125 C-72.58635581 68.22146919 -71.69823445 66.93637919 -70.80859375 65.65234375 C-70.09461426 64.6152124 -70.09461426 64.6152124 -69.36621094 63.55712891 C-66.68354721 59.71600299 -63.88661175 55.95958966 -61.09765625 52.1953125 C-59.89444235 50.56647192 -58.69131836 48.93756491 -57.48828125 47.30859375 C-56.88564453 46.49342285 -56.28300781 45.67825195 -55.66210938 44.83837891 C-53.30054385 41.64238509 -50.94322197 38.44327961 -48.58691406 35.2434082 C-47.43112298 33.6747187 -46.27422851 32.10684154 -45.11621094 30.53979492 C-42.07597836 26.42334735 -39.05696812 22.29333027 -36.06640625 18.140625 C-35.13248047 16.85188477 -35.13248047 16.85188477 -34.1796875 15.53710938 C-32.99369454 13.89973103 -31.8136005 12.25805689 -30.640625 10.61132812 C-22.80477987 -0.16997191 -13.21450852 -6.46042639 0 0 Z " fill="#484848" transform="translate(213.84765625,239.6171875)"/>
</svg>
